<svg xmlns="http://www.w3.org/2000/svg" width="41" height="41" aria-hidden="true" viewBox="0 0 41 41"><defs><linearGradient id="a" x1="49.963%" x2="49.963%" y1="1.851%" y2="99.243%"><stop offset="0%" stop-color="#0069FF" stop-opacity=".3"/><stop offset="100%" stop-color="#0069FF" stop-opacity="0"/></linearGradient></defs><g fill="none" fill-rule="evenodd" transform="translate(4.3 1)"><circle cx="16.185" cy="22.815" r="16.185" fill="url(#a)" fill-rule="nonzero"/><ellipse cx="16.185" cy="22.815" fill="#FFF" fill-rule="nonzero" rx="16.185" ry="6.143"/><path stroke="#0069FF" stroke-width="2" d="M0 22.815c0-3.413 7.215-6.143 16.185-6.143 8.97 0 16.185 2.73 16.185 6.143" opacity=".4"/><path stroke="#0069FF" stroke-width="2" d="M16.185 39c-3.412 0-6.142-7.215-6.142-16.185 0-8.97 2.73-16.185 6.142-16.185" opacity=".4"/><path stroke="#0069FF" stroke-width="2" d="M32.37 22.815c0 3.412-7.215 6.142-16.185 6.142C7.215 28.957 0 26.227 0 22.816"/><path stroke="#0069FF" stroke-width="2" d="M16.185 6.63c3.413 0 6.143 7.215 6.143 16.185 0 8.97-2.73 16.185-6.143 16.185"/><circle cx="16.185" cy="22.815" r="16.185" stroke="#0069FF" stroke-width="2"/><g stroke="#120078" stroke-width="2" transform="translate(8.775)"><path fill="#FFF" fill-rule="nonzero" d="M14.332 6.923c0 5.167-6.922 10.237-6.922 10.237S.487 11.895.487 6.922C.487 3.12 3.607 0 7.41 0s6.922 3.12 6.922 6.923z"/><circle cx="7.41" cy="7.02" r="2.34"/></g></g></svg>